<svg xmlns="http://www.w3.org/2000/svg">
<style>:root svg:not(:target){display:none}</style>
<svg viewBox="0 0 50 50" fill="none" id="cancel-default-l"><g id="cancel-default-l_0"><path id="cancel-default-l_1" d="M34.1147 35.8814L24.9985 26.7652L15.8822 35.8814C15.7671 35.9989 15.6294 36.0915 15.4776 36.1548C15.3258 36.2182 15.1629 36.2509 14.9985 36.25C14.7508 36.2505 14.5087 36.1776 14.3027 36.0401C14.0966 35.9026 13.9359 35.7075 13.8412 35.4786C13.7465 35.2497 13.7217 34.9963 13.7704 34.7535C13.8191 34.5106 13.939 34.2885 14.1147 34.1138L23.2309 24.9976L14.1147 15.8814C13.887 15.6456 13.7609 15.3302 13.7637 15.0025C13.7666 14.6747 13.8982 14.3602 14.1299 14.1285C14.3617 13.8967 14.675 13.7651 15.0027 13.7623C15.3305 13.7594 15.6465 13.8861 15.8822 14.1138L24.9985 23.23L34.1147 14.1138C34.3504 13.8861 34.6664 13.7594 34.9942 13.7623C35.3219 13.7651 35.6352 13.8967 35.867 14.1285C36.0987 14.3602 36.2303 14.6747 36.2332 15.0025C36.236 15.3302 36.1099 15.6456 35.8822 15.8814L26.766 24.9976L35.8822 34.1138C36.0016 34.2291 36.0969 34.3666 36.1624 34.5191C36.2279 34.6716 36.2623 34.8365 36.2637 35.0025C36.2652 35.1685 36.2338 35.3323 36.1709 35.4859C36.1081 35.6395 36.0149 35.7787 35.8975 35.896C35.7801 36.0134 35.641 36.1066 35.4873 36.1695C35.3337 36.2323 35.1687 36.2637 35.0027 36.2623C34.8368 36.2608 34.6731 36.2277 34.5205 36.1622C34.368 36.0966 34.23 36.0008 34.1147 35.8814Z" fill="#C4C4C4"></path></g></svg>
<svg viewBox="0 0 50 50" fill="none" id="cancel-hover-l"><g id="cancel-hover-l_0"><path id="cancel-hover-l_1" d="M34.1147 35.8814L24.9985 26.7652L15.8822 35.8814C15.7671 35.9989 15.6294 36.0915 15.4776 36.1548C15.3258 36.2182 15.1629 36.2509 14.9985 36.25C14.7508 36.2505 14.5087 36.1776 14.3027 36.0401C14.0966 35.9026 13.9359 35.7075 13.8412 35.4786C13.7465 35.2497 13.7217 34.9963 13.7704 34.7535C13.8191 34.5106 13.939 34.2885 14.1147 34.1138L23.2309 24.9976L14.1147 15.8814C13.887 15.6456 13.7609 15.3302 13.7637 15.0025C13.7666 14.6747 13.8982 14.3602 14.1299 14.1285C14.3617 13.8967 14.675 13.7651 15.0027 13.7623C15.3305 13.7594 15.6465 13.8861 15.8822 14.1138L24.9985 23.23L34.1147 14.1138C34.3504 13.8861 34.6664 13.7594 34.9942 13.7623C35.3219 13.7651 35.6352 13.8967 35.867 14.1285C36.0987 14.3602 36.2303 14.6747 36.2332 15.0025C36.236 15.3302 36.1099 15.6456 35.8822 15.8814L26.766 24.9976L35.8822 34.1138C36.0016 34.2291 36.0969 34.3666 36.1624 34.5191C36.2279 34.6716 36.2623 34.8365 36.2637 35.0025C36.2652 35.1685 36.2338 35.3323 36.1709 35.4859C36.1081 35.6395 36.0149 35.7787 35.8975 35.896C35.7801 36.0134 35.641 36.1066 35.4873 36.1695C35.3337 36.2323 35.1687 36.2637 35.0027 36.2623C34.8368 36.2608 34.6731 36.2277 34.5205 36.1622C34.368 36.0966 34.23 36.0008 34.1147 35.8814Z" fill="white"></path></g></svg>
<svg viewBox="0 0 26 26" fill="none" id="check-filled-active-l"><rect width="26" height="26" rx="13" fill="#E93945"></rect><g clip-path="url(#check-filled-active-l_0)"><path d="M6.33301 12.5352L11.0487 17.252L19.6663 8.6355" stroke="white" stroke-width="2"></path></g><defs><clipPath id="check-filled-active-l_0"><rect width="20" height="20" fill="white" transform="translate(3 3)"></rect></clipPath></defs></svg>
<svg viewBox="0 0 26 26" fill="none" id="check-filled-default-l"><rect width="26" height="26" rx="13" fill="#565656"></rect><g clip-path="url(#check-filled-default-l_0)"><path d="M6.33301 12.5352L11.0487 17.252L19.6663 8.6355" stroke="#8D8D8D" stroke-width="2"></path></g><defs><clipPath id="check-filled-default-l_0"><rect width="20" height="20" fill="white" transform="translate(3 3)"></rect></clipPath></defs></svg>
<svg viewBox="0 0 26 26" fill="none" id="check-no-filled-default-l"><g clip-path="url(#check-no-filled-default-l_0)"><path d="M4.09131 10.6262L9.94131 17.4173L22.9997 5.84741" stroke="#6B6B6B" stroke-width="2"></path></g><defs><clipPath id="check-no-filled-default-l_0"><rect width="26" height="26" fill="white"></rect></clipPath></defs></svg>
<svg viewBox="0 0 14 14" fill="none" id="delete-fiiled-l"><g clip-path="url(#delete-fiiled-l_0)"><g opacity="0.301"><path d="M7 14C10.866 14 14 10.866 14 7C14 3.13401 10.866 0 7 0C3.13401 0 0 3.13401 0 7C0 10.866 3.13401 14 7 14Z" fill="white"></path><path d="M9.55309 9.99985C9.49438 9.99994 9.43623 9.98841 9.382 9.96592C9.32777 9.94344 9.27852 9.91045 9.23709 9.86885L4.13109 4.76285C4.04731 4.67902 4.00024 4.56536 4.00024 4.44685C4.00024 4.32833 4.04731 4.21467 4.13109 4.13085C4.21491 4.04706 4.32858 4 4.44709 4C4.5656 4 4.67927 4.04706 4.76309 4.13085L9.86909 9.23685C9.93157 9.29936 9.97412 9.37899 9.99136 9.46568C10.0086 9.55237 9.99974 9.64223 9.96592 9.72389C9.9321 9.80555 9.87483 9.87535 9.80135 9.92446C9.72787 9.97358 9.64148 9.99982 9.55309 9.99985Z" fill="black"></path><path d="M4.44709 9.99985C4.38838 9.99994 4.33023 9.98841 4.276 9.96592C4.22177 9.94344 4.17252 9.91045 4.13109 9.86885C4.04731 9.78502 4.00024 9.67136 4.00024 9.55285C4.00024 9.43433 4.04731 9.32067 4.13109 9.23685L9.23709 4.13085C9.32091 4.04706 9.43458 4 9.55309 4C9.67161 4 9.78527 4.04706 9.86909 4.13085C9.95287 4.21467 9.99994 4.32833 9.99994 4.44685C9.99994 4.56536 9.95287 4.67902 9.86909 4.76285L4.76309 9.86885C4.72166 9.91045 4.67242 9.94344 4.61818 9.96592C4.56395 9.98841 4.5058 9.99994 4.44709 9.99985Z" fill="black"></path></g></g><defs><clipPath id="delete-fiiled-l_0"><rect width="14" height="14" fill="white"></rect></clipPath></defs></svg>
<svg viewBox="0 0 15 15" fill="none" id="delete-no-fiiled-l"><g clip-path="url(#delete-no-fiiled-l_0)"><g opacity="0.5"><path d="M14.3177 14.9976C14.2281 14.9977 14.1393 14.9801 14.0565 14.9457C13.9737 14.9114 13.8985 14.8611 13.8353 14.7976L0.200025 1.16361C0.0835793 1.03364 0.0213517 0.863999 0.0261356 0.689559C0.0309195 0.515118 0.102351 0.34914 0.225745 0.225745C0.34914 0.102351 0.515118 0.0309195 0.689559 0.0261356C0.863999 0.0213517 1.03364 0.0835793 1.16361 0.200025L14.8001 13.8365C14.8951 13.932 14.9596 14.0535 14.9857 14.1856C15.0118 14.3177 14.9982 14.4546 14.9466 14.579C14.895 14.7034 14.8078 14.8098 14.6958 14.8847C14.5839 14.9596 14.4524 14.9998 14.3177 15.0001V14.9976Z" fill="white"></path><path d="M0.68243 14.9974C0.592807 14.9975 0.504047 14.9799 0.421255 14.9456C0.338463 14.9113 0.263273 14.8609 0.20001 14.7975C0.0720993 14.6695 0.000244141 14.496 0.000244141 14.315C0.000244141 14.1341 0.0720993 13.9606 0.20001 13.8326L13.8365 0.199891C13.9653 0.076225 14.1375 0.00798012 14.316 0.00980115C14.4946 0.0116222 14.6653 0.083364 14.7916 0.209632C14.9179 0.3359 14.9896 0.506632 14.9914 0.685193C14.9932 0.863754 14.925 1.03591 14.8013 1.16473L1.1636 14.8C1.03572 14.927 0.862652 14.998 0.68243 14.9974Z" fill="white"></path></g></g><defs><clipPath id="delete-no-fiiled-l_0"><rect width="15" height="15" fill="white"></rect></clipPath></defs></svg>
<svg viewBox="0 0 52 52" fill="none" id="facebook-l"><rect width="52" height="52" rx="26" fill="#2B2B2B"></rect><g clip-path="url(#facebook-l_0)"><path d="M34.0814 28.1707L35.046 21.8853H29.015V17.8065C29.015 16.0869 29.8575 14.4107 32.5586 14.4107H35.3004V9.0594C35.3004 9.0594 32.8123 8.63477 30.4334 8.63477C25.4666 8.63477 22.2201 11.6452 22.2201 17.0949V21.8853H16.6992V28.1707H22.2201V43.3652H29.015V28.1707H34.0814Z" fill="#6B6B6B"></path></g><defs><clipPath id="facebook-l_0"><rect width="21.7065" height="34.7305" fill="white" transform="translate(15.1465 8.63477)"></rect></clipPath></defs></svg>
<svg viewBox="0 0 55 63" fill="none" id="icon-l"><g id="icon-l_0"><path id="icon-l_1" d="M0 32.4742V19.4845H54.5567L40.268 63H13.6392V32.4742H0Z" fill="black"></path><path id="icon-l_2" d="M27.2783 49.3608V0H44.1649L27.2783 49.3608Z" fill="white"></path><path id="icon-l_3" d="M37.6701 19.4845H27.2783V49.3608L37.6701 19.4845Z" fill="#61D4E6"></path></g></svg>
<svg viewBox="0 0 36 36" fill="none" id="input-id-l"><g clip-path="url(#input-id-l_0)"><path d="M18 30C24.6274 30 30 24.6274 30 18C30 11.3726 24.6274 6 18 6C11.3726 6 6 11.3726 6 18C6 24.6274 11.3726 30 18 30Z" fill="#A6A6A6"></path><path d="M24.0599 22.5464L19.5149 18.0014L24.0599 13.4564L22.5449 11.9414L17.9999 16.4864L13.4549 11.9414L11.9399 13.4564L16.4849 18.0014L11.9399 22.5464L13.4549 24.0614L17.9999 19.5164L22.5464 24.0614L24.0599 22.5464Z" fill="black"></path></g><defs><clipPath id="input-id-l_0"><rect width="36" height="36" fill="white"></rect></clipPath></defs></svg>
<svg viewBox="0 0 52 52" fill="none" id="instagram-l"><rect width="52" height="52" rx="26" fill="#2B2B2B"></rect><g clip-path="url(#instagram-l_0)"><path d="M26.0065 17.7073C21.4202 17.7073 17.7209 21.4066 17.7209 25.993C17.7209 30.5793 21.4202 34.2786 26.0065 34.2786C30.5928 34.2786 34.2922 30.5793 34.2922 25.993C34.2922 21.4066 30.5928 17.7073 26.0065 17.7073ZM26.0065 31.3797C23.0427 31.3797 20.6198 28.964 20.6198 25.993C20.6198 23.0219 23.0355 20.6062 26.0065 20.6062C28.9775 20.6062 31.3933 23.0219 31.3933 25.993C31.3933 28.964 28.9703 31.3797 26.0065 31.3797ZM36.5637 17.3684C36.5637 18.4428 35.6984 19.301 34.6311 19.301C33.5566 19.301 32.6985 18.4356 32.6985 17.3684C32.6985 16.3011 33.5639 15.4358 34.6311 15.4358C35.6984 15.4358 36.5637 16.3011 36.5637 17.3684ZM42.0514 19.3298C41.9288 16.741 41.3375 14.4478 39.441 12.5585C37.5516 10.6692 35.2585 10.0779 32.6697 9.94805C30.0015 9.79661 22.0043 9.79661 19.3362 9.94805C16.7546 10.0706 14.4614 10.662 12.5648 12.5513C10.6683 14.4406 10.0842 16.7338 9.9544 19.3226C9.80296 21.9907 9.80296 29.988 9.9544 32.6561C10.077 35.2449 10.6683 37.5381 12.5648 39.4274C14.4614 41.3167 16.7473 41.9081 19.3362 42.0379C22.0043 42.1893 30.0015 42.1893 32.6697 42.0379C35.2585 41.9153 37.5516 41.324 39.441 39.4274C41.3303 37.5381 41.9216 35.2449 42.0514 32.6561C42.2029 29.988 42.2029 21.998 42.0514 19.3298ZM38.6045 35.5189C38.042 36.9323 36.9531 38.0212 35.5325 38.5909C33.4052 39.4346 28.3574 39.2399 26.0065 39.2399C23.6557 39.2399 18.6006 39.4274 16.4805 38.5909C15.0671 38.0284 13.9782 36.9396 13.4086 35.5189C12.5648 33.3916 12.7596 28.3438 12.7596 25.993C12.7596 23.6421 12.5721 18.5871 13.4086 16.467C13.971 15.0536 15.0599 13.9647 16.4805 13.395C18.6078 12.5513 23.6557 12.746 26.0065 12.746C28.3574 12.746 33.4124 12.5585 35.5325 13.395C36.9459 13.9575 38.0348 15.0464 38.6045 16.467C39.4482 18.5943 39.2535 23.6421 39.2535 25.993C39.2535 28.3438 39.4482 33.3989 38.6045 35.5189Z" fill="#6B6B6B"></path></g><defs><clipPath id="instagram-l_0"><rect width="32.3062" height="36.9213" fill="white" transform="translate(9.84668 7.53955)"></rect></clipPath></defs></svg>
<svg viewBox="0 0 34 34" fill="none" id="live-default-l"><g clip-path="url(#live-default-l_0)"><path d="M11.0003 23.3681H6.5166V16.1431H7.63859V22.3948H11.0018L11.0003 23.3681Z" fill="#C4C4C4" stroke="#C4C4C4" stroke-width="0.2" stroke-linejoin="round"></path><path d="M12.4834 23.3681V16.1431H13.6054V23.3681H12.4834Z" fill="#C4C4C4" stroke="#C4C4C4" stroke-width="0.2" stroke-linejoin="round"></path><path d="M17.6629 23.3681L15.0859 16.1431H16.3029L18.2692 22.1044H18.3004L20.2724 16.1431H21.4695L18.8912 23.3681H17.6629Z" fill="#C4C4C4" stroke="#C4C4C4" stroke-width="0.2" stroke-linejoin="round"></path><path d="M27.5355 23.3681H22.9512V16.1431H27.5355V17.1092H24.0732V19.2215H27.3513V20.148H24.0732V22.3906H27.5355V23.3681Z" fill="#C4C4C4" stroke="#C4C4C4" stroke-width="0.2" stroke-linejoin="round"></path><g opacity="0.901"><g opacity="0.998"><path d="M29.7496 9.34766H4.24961C2.37184 9.34766 0.849609 10.8699 0.849609 12.7477V26.9143C0.849609 28.7921 2.37184 30.3143 4.24961 30.3143H29.7496C31.6274 30.3143 33.1496 28.7921 33.1496 26.9143V12.7477C33.1496 10.8699 31.6274 9.34766 29.7496 9.34766Z" stroke="#C4C4C4" stroke-width="1.2" stroke-linecap="round" stroke-linejoin="round"></path></g><g opacity="0.998"><path d="M15.9441 9.2085L11.6162 4.9585" stroke="#C4C4C4" stroke-width="1.2" stroke-linecap="round" stroke-linejoin="round"></path><path d="M17.9844 9.2085L22.3123 4.9585" stroke="#C4C4C4" stroke-width="1.2" stroke-linecap="round" stroke-linejoin="round"></path></g></g></g><defs><clipPath id="live-default-l_0"><rect width="34" height="34" fill="white"></rect></clipPath></defs></svg>
<svg viewBox="0 0 34 34" fill="none" id="live-hover-l"><g clip-path="url(#live-hover-l_0)"><path d="M11.0003 23.3681H6.5166V16.1431H7.63859V22.3948H11.0018L11.0003 23.3681Z" fill="white" stroke="white" stroke-width="0.2" stroke-linejoin="round"></path><path d="M12.4834 23.3681V16.1431H13.6054V23.3681H12.4834Z" fill="white" stroke="white" stroke-width="0.2" stroke-linejoin="round"></path><path d="M17.6629 23.3681L15.0859 16.1431H16.3029L18.2692 22.1044H18.3004L20.2724 16.1431H21.4695L18.8912 23.3681H17.6629Z" fill="white" stroke="white" stroke-width="0.2" stroke-linejoin="round"></path><path d="M27.5355 23.3681H22.9512V16.1431H27.5355V17.1092H24.0732V19.2215H27.3513V20.148H24.0732V22.3906H27.5355V23.3681Z" fill="white" stroke="white" stroke-width="0.2" stroke-linejoin="round"></path><g opacity="0.901"><g opacity="0.998"><path d="M29.7496 9.34766H4.24961C2.37184 9.34766 0.849609 10.8699 0.849609 12.7477V26.9143C0.849609 28.7921 2.37184 30.3143 4.24961 30.3143H29.7496C31.6274 30.3143 33.1496 28.7921 33.1496 26.9143V12.7477C33.1496 10.8699 31.6274 9.34766 29.7496 9.34766Z" stroke="white" stroke-width="1.2" stroke-linecap="round" stroke-linejoin="round"></path></g><g opacity="0.998"><path d="M15.9441 9.2085L11.6162 4.9585" stroke="white" stroke-width="1.2" stroke-linecap="round" stroke-linejoin="round"></path><path d="M17.9844 9.2085L22.3123 4.9585" stroke="white" stroke-width="1.2" stroke-linecap="round" stroke-linejoin="round"></path></g></g></g><defs><clipPath id="live-hover-l_0"><rect width="34" height="34" fill="white"></rect></clipPath></defs></svg>
<svg viewBox="0 0 132 42" fill="none" id="logo-l"><g clip-path="url(#logo-l_1)"><mask id="logo-l_0" style="mask-type:luminance" maskUnits="userSpaceOnUse" x="0" y="4" width="132" height="34"><path d="M0 4.87793H131.511V37.1249H0V4.87793Z" fill="white"></path></mask><g mask="url(#logo-l_0)"><path d="M86.165 23.0518L92.5699 35.9773H102.522V5.65479H92.9944V18.2773C92.9948 18.4681 92.9306 18.6534 92.8122 18.803C92.6938 18.9526 92.5282 19.0577 92.3424 19.1012C92.1567 19.1447 91.9616 19.124 91.7891 19.0425C91.6166 18.961 91.4768 18.8234 91.3925 18.6523L84.9544 5.65479H75.002V35.9758H84.5585V23.4253C84.5584 23.2346 84.6229 23.0495 84.7414 22.9002C84.8599 22.7508 85.0255 22.646 85.2112 22.6027C85.3969 22.5594 85.5918 22.5802 85.7641 22.6617C85.9365 22.7433 86.0762 22.8808 86.1604 23.0518" fill="white"></path><path d="M60.2627 5.65479H70.7132V35.9758H60.2627V5.65479Z" fill="white"></path><path d="M105.61 17.946V23.535C105.61 28.971 107.661 32.901 111.703 35.214C118.153 38.9055 127.441 36.627 131.512 33.6165V19.506H122.074V28.38L121.894 28.4505C121.145 28.7413 120.339 28.8606 119.538 28.7996C118.736 28.7386 117.958 28.4989 117.261 28.098C116.605 27.5687 116.092 26.8832 115.77 26.1044C115.447 25.3255 115.326 24.4781 115.416 23.64V17.3865C115.322 16.5743 115.526 15.7556 115.99 15.0827C116.455 14.4097 117.148 13.9283 117.94 13.728C118.803 13.5203 119.712 13.6478 120.484 14.0847C121.255 14.5216 121.833 15.2353 122.098 16.0815L131.241 11.178C130.077 9.15511 128.374 7.4951 126.322 6.3828C124.27 5.27049 121.949 4.74956 119.619 4.878C119.002 4.878 118.402 4.908 117.831 4.959C114.741 5.14366 111.792 6.31687 109.419 8.3055C108.134 9.54797 107.13 11.0512 106.474 12.714C105.819 14.3769 105.527 16.1609 105.618 17.946" fill="white"></path><path d="M25.9305 5.65479H0V14.5318H7.8V35.9818H18.1155V14.5318H25.923L25.9305 5.65479Z" fill="white"></path><path d="M37.8992 36.3208L44.4332 16.0183C44.4939 15.8255 44.6217 15.6609 44.7935 15.5543C44.9652 15.4477 45.1695 15.4063 45.3692 15.4375C45.5689 15.4688 45.7507 15.5706 45.8817 15.7245C46.0128 15.8784 46.0842 16.0742 46.0832 16.2763L46.0832 36.3223L55.9922 36.3223L55.9922 5.99977L37.2557 5.99976L27.0002 36.3208L37.8992 36.3208Z" fill="white"></path></g></g><defs><clipPath id="logo-l_1"><rect width="132" height="42" fill="white"></rect></clipPath></defs></svg>
<svg viewBox="0 0 112 34" fill="none" id="paramount-default-l"><g clip-path="url(#paramount-default-l_0)"><path fill-rule="evenodd" clip-rule="evenodd" d="M29.6668 11.4511C29.6668 7.05941 25.0216 4.9585 19.5008 4.9585C13.6004 4.9585 8.19581 7.56091 6.20965 11.6253C5.65147 12.7109 5.36009 13.9138 5.35965 15.1344C5.34345 16.1815 5.63935 17.2098 6.20965 18.0882C6.74251 18.7925 7.44562 19.3498 8.25296 19.7079C9.0603 20.066 9.94539 20.213 10.8251 20.1352C13.5423 20.1352 15.7325 18.6435 15.7325 16.0127C15.7344 15.9087 15.7138 15.8054 15.6722 15.71C15.6305 15.6146 15.5688 15.5293 15.4913 15.46C15.4137 15.3906 15.322 15.3388 15.2226 15.308C15.1232 15.2772 15.0183 15.2683 14.9151 15.2817C14.2138 15.2817 14.0396 15.779 14.0651 16.0127C14.1279 16.48 14.0892 16.9553 13.9515 17.4062C13.8139 17.8571 13.5805 18.273 13.2674 18.6255C12.9544 18.978 12.5689 19.2588 12.1374 19.4487C11.7059 19.6385 11.2385 19.7331 10.7671 19.7258C8.34315 19.7258 7.32031 17.649 7.32031 15.4277C7.32031 10.8943 10.7387 7.91225 14.2733 6.59616C15.9353 5.97455 17.6982 5.66712 19.4725 5.6895C23.5043 5.6895 26.7754 7.23933 26.7754 11.3562C26.7242 13.0587 26.0444 14.6819 24.8673 15.913C23.6901 17.144 22.0989 17.8957 20.4004 18.023L20.5421 17.5555C21.1386 14.9529 22.1549 12.4648 23.5511 10.1888C23.6593 10.0007 23.7865 9.82407 23.9307 9.66183L23.7267 9.42808C23.4163 9.60592 23.1228 9.81172 22.8498 10.0429C16.1915 15.2194 15.9846 29.8408 7.13331 29.8408C6.83038 29.8516 6.52713 29.8322 6.22806 29.7827C5.42157 29.715 4.67358 29.3344 4.14409 28.7223C3.6146 28.1102 3.34563 27.3153 3.39473 26.5074C3.39473 26.1858 3.51231 25.7183 3.51231 25.4548C3.51822 25.3353 3.50002 25.2158 3.45879 25.1034C3.41757 24.991 3.35416 24.8881 3.27235 24.8007C3.19054 24.7134 3.09199 24.6434 2.98256 24.5949C2.87314 24.5464 2.75507 24.5204 2.6354 24.5184H2.55748C1.7684 24.5184 1.44681 25.1616 1.42415 26.0385C1.36606 28.6409 3.26581 30.1327 6.21531 30.4302C6.5369 30.4302 6.85848 30.4599 7.20698 30.4599C14.1302 30.4599 18.3661 25.2253 20.178 18.8801C21.0896 18.7585 21.9898 18.5628 22.8696 18.295C26.0826 17.4181 29.6696 15.2534 29.6696 11.4525" fill="#C4C4C4"></path><path fill-rule="evenodd" clip-rule="evenodd" d="M68.4678 17.9622C68.0803 20.262 67.1929 22.4488 65.8682 24.3683C65.3426 25.1574 64.8765 25.36 64.4671 25.36C63.8834 25.36 63.7375 24.8925 63.8239 24.2267C64.2306 22.0977 65.0758 20.0767 66.3059 18.2922C66.9491 17.4153 67.3571 17.064 67.8544 17.064C68.3219 17.064 68.4678 17.4734 68.4678 17.9707M41.5412 24.6942C41.1913 24.6942 40.9278 24.5766 40.9278 24.1091C41.2317 22.2675 42.0062 20.5357 43.176 19.0813C43.5226 18.52 43.9916 18.0444 44.548 17.6902C45.1045 17.3359 45.7338 17.1122 46.389 17.0357L44.842 20.4852C43.6733 23.1457 42.4762 24.6942 41.5412 24.6942ZM26.3545 24.6942C26.0046 24.6942 25.7709 24.5766 25.7709 24.1091C26.101 22.2755 26.8726 20.5499 28.0191 19.0813C28.3656 18.52 28.8347 18.0444 29.3911 17.6902C29.9475 17.3359 30.5769 17.1122 31.2321 17.0357L29.7134 20.4852C28.5447 23.0862 27.2895 24.6942 26.3545 24.6942ZM95.5388 12.9727H93.0852L92.5596 14.259L91.5963 16.4222H90.4629L90.113 17.1532H91.3101L89.8793 20.2812C88.8564 22.5026 87.2797 24.6729 86.3744 24.6729C86.1704 24.6729 86.0528 24.5851 86.0528 24.3811C86.086 24.0565 86.1752 23.7402 86.3164 23.4461C86.6082 22.7732 87.0757 21.8084 87.4256 21.0788C88.0394 20.0144 88.483 18.8605 88.7403 17.659C88.7506 17.4633 88.7188 17.2676 88.6468 17.0853C88.5749 16.903 88.4645 16.7383 88.3233 16.6024C88.182 16.4666 88.0132 16.3627 87.8282 16.2979C87.6433 16.233 87.4465 16.2088 87.2514 16.2267C86.6528 16.2775 86.0712 16.4517 85.5433 16.7384C85.0154 17.0252 84.5527 17.4182 84.1843 17.8927L84.7977 16.4307H82.4857L80.6171 20.6694C79.8861 22.1725 78.3674 24.6517 77.4041 24.6517C77.2001 24.6517 77.1123 24.5341 77.1123 24.3301C77.1321 24.1486 77.1799 23.9713 77.2539 23.8045C77.3418 23.6288 78.451 20.9981 78.451 20.9981L80.4655 16.35H78.0119L76.0285 20.8833C75.4449 22.2858 73.9035 24.6545 72.9034 24.6545C72.8608 24.6609 72.8173 24.6582 72.7759 24.6467C72.7344 24.6351 72.6959 24.6148 72.6628 24.5872C72.6297 24.5597 72.6029 24.5254 72.584 24.4867C72.5652 24.448 72.5548 24.4057 72.5534 24.3627V24.3046C72.6015 23.9478 72.7103 23.6018 72.875 23.2817L73.8978 21.0023L76.0228 16.3542H73.5692L73.1017 17.4068C72.9495 17.82 72.6864 18.1832 72.3413 18.4567C71.9961 18.7301 71.5823 18.9031 71.1453 18.9567C70.6778 18.9567 70.444 18.781 70.3576 18.6053C70.356 18.2736 70.2861 17.9457 70.1523 17.6421C70.0184 17.3386 69.8235 17.0659 69.5796 16.841C69.3357 16.6161 69.0481 16.4438 68.7347 16.335C68.4213 16.2261 68.0888 16.183 67.758 16.2083C66.8557 16.2329 65.9752 16.4909 65.2023 16.9572C64.4294 17.4235 63.7905 18.0821 63.3479 18.8688C62.7031 19.8618 62.2108 20.9458 61.8873 22.0847C61.0118 23.5169 60.1052 24.6347 59.3756 24.6347C59.3319 24.6411 59.2873 24.6372 59.2453 24.6233C59.2034 24.6094 59.1652 24.5859 59.134 24.5547C59.1027 24.5234 59.0792 24.4853 59.0653 24.4434C59.0515 24.4014 59.0476 24.3568 59.054 24.3131C59.1126 23.9687 59.221 23.6347 59.3756 23.3214L60.9821 19.9016C61.3817 19.146 61.639 18.3234 61.7414 17.4748C61.7449 17.3014 61.7118 17.1292 61.6443 16.9694C61.5769 16.8096 61.4766 16.6658 61.3499 16.5473C61.2233 16.4288 61.0731 16.3383 60.9092 16.2816C60.7453 16.2249 60.5712 16.2033 60.3984 16.2182C59.7401 16.2651 59.0979 16.4446 58.5107 16.746C57.9235 17.0474 57.4033 17.4644 56.9814 17.9721C57.0294 17.8012 57.0491 17.6237 57.0395 17.4465C57.0626 17.2774 57.0458 17.1052 56.9905 16.9438C56.9352 16.7823 56.8428 16.6361 56.7208 16.5167C56.5989 16.3973 56.4506 16.3082 56.288 16.2563C56.1254 16.2045 55.9529 16.1915 55.7844 16.2182C55.1685 16.2708 54.571 16.4545 54.032 16.757C53.493 17.0595 53.0249 17.4738 52.6592 17.9721L53.3009 16.3939H51.081L49.1827 20.6609C48.2774 22.6442 46.8466 24.6361 46.0292 24.6361C45.8535 24.6361 45.7374 24.5482 45.7374 24.3145C45.8613 23.7183 46.0573 23.1393 46.321 22.5904L48.8328 16.9237C49.0084 16.4846 47.8099 16.2154 46.2913 16.2154C44.6794 16.2952 43.1435 16.9247 41.9393 17.999C41.4559 18.4889 40.8512 18.8418 40.1869 19.0218C40.0452 19.0218 39.9829 18.934 39.9829 18.8462C39.9829 18.4948 40.8003 17.5315 40.8003 16.7707C40.8003 16.4194 40.6246 16.2154 40.1571 16.2154C39.0646 16.4214 38.0926 17.0384 37.4414 17.9395L38.0845 16.3897H35.8943L34.0357 20.6524C33.1304 22.6357 31.6415 24.7452 30.8524 24.7452C30.6484 24.7452 30.5309 24.6276 30.5309 24.3938C30.6584 23.7625 30.875 23.1524 31.174 22.5819L33.656 16.9152C33.8317 16.4761 32.6332 16.2069 31.1159 16.2069C30.0145 16.2766 28.9425 16.5909 27.9777 17.1268C27.0129 17.6627 26.1797 18.4069 25.5385 19.3052C24.3335 20.6974 23.5709 22.4173 23.3484 24.2451C23.3156 24.4946 23.3391 24.7483 23.4171 24.9876C23.4952 25.2268 23.6258 25.4456 23.7994 25.6278C23.9731 25.81 24.1853 25.951 24.4205 26.0404C24.6558 26.1299 24.908 26.1656 25.1589 26.1448C25.7827 26.0752 26.3836 25.8688 26.9186 25.5405C27.4537 25.2121 27.9097 24.7698 28.2543 24.2451C28.2109 24.408 28.1815 24.5744 28.1664 24.7423C28.1664 25.5612 28.488 26.1448 29.4811 26.1448C30.0783 26.0513 30.6494 25.8343 31.1579 25.5077C31.6665 25.1811 32.1014 24.752 32.4349 24.2479L31.7053 25.972H34.0711L36.4015 20.685C37.1609 18.9609 38.0364 18.084 38.2701 18.084C38.3579 18.084 38.4118 18.1137 38.4118 18.1718C38.4118 18.3475 38.0321 18.8447 38.0321 19.2825C38.0321 19.7202 38.2659 20.0716 38.9374 20.0716C39.5027 20.0287 40.0467 19.8371 40.5141 19.5162C39.3834 20.8575 38.6816 22.5074 38.4996 24.2522C38.4618 24.5026 38.4817 24.7584 38.558 24.9999C38.6342 25.2414 38.7647 25.4623 38.9394 25.6456C39.1141 25.829 39.3285 25.9699 39.5661 26.0577C39.8036 26.1454 40.0581 26.1777 40.3101 26.1519C40.9437 26.044 41.5482 25.8067 42.0859 25.4547C42.6236 25.1028 43.0829 24.6437 43.4353 24.1062C43.4015 24.2996 43.3821 24.4951 43.3772 24.6913C43.3601 24.88 43.3832 25.0702 43.4449 25.2493C43.5066 25.4284 43.6056 25.5924 43.7353 25.7306C43.865 25.8687 44.0224 25.9778 44.1973 26.0506C44.3722 26.1235 44.5605 26.1585 44.7499 26.1533C45.7728 26.1533 46.5604 25.5102 47.5833 24.2833L46.8239 25.9833H49.2776L51.4975 20.9258C52.4608 18.7342 53.8053 17.5641 54.447 17.5641C54.5887 17.5343 54.7389 17.6817 54.7686 17.8276V17.8857C54.7318 18.137 54.6632 18.3826 54.5646 18.6167L51.3516 26.0117H53.8634L56.1116 20.8677C57.1033 18.6464 58.1856 17.5641 58.9733 17.5641C59.2353 17.5641 59.3232 17.6817 59.3232 17.9437C59.3039 18.2266 59.2349 18.5038 59.1192 18.7626L56.929 23.4376C56.7182 23.8781 56.5896 24.3534 56.5494 24.8401C56.5494 25.5711 56.929 26.1845 58.0383 26.1845C59.4394 26.1845 60.5203 25.1036 61.7471 23.524V23.8456C61.7463 24.1862 61.8178 24.5231 61.9569 24.8341C62.096 25.1451 62.2994 25.423 62.5538 25.6495C62.8082 25.876 63.1077 26.046 63.4326 26.1483C63.7576 26.2505 64.1005 26.2826 64.4388 26.2426C66.687 26.2426 68.4692 24.7225 69.5784 22.2674C69.9825 21.3978 70.2487 20.4706 70.3675 19.5191C70.6118 19.6386 70.8846 19.6876 71.1552 19.6607C71.5239 19.678 71.8894 19.5864 72.2064 19.3972L71.8267 20.2472C71.3889 21.1822 70.8917 22.2051 70.512 23.0806C70.2644 23.5941 70.1159 24.1497 70.0743 24.7182C70.0544 24.9201 70.079 25.1238 70.1464 25.3152C70.2137 25.5065 70.3222 25.6807 70.4641 25.8256C70.606 25.9705 70.778 26.0826 70.9679 26.1539C71.1578 26.2252 71.361 26.254 71.5632 26.2383C72.2425 26.1105 72.8884 25.8448 73.461 25.4577C74.0336 25.0705 74.5207 24.57 74.8924 23.9872C74.8327 24.2561 74.8033 24.5307 74.8045 24.8061C74.8045 25.5371 75.0383 26.2383 76.0314 26.2383C76.6389 26.1563 77.2208 25.9407 77.7352 25.6071C78.2496 25.2735 78.6837 24.8301 79.0064 24.3088L78.2768 26.0088H80.7304L82.6869 21.5364C83.7961 19.0218 84.9068 17.5017 85.9579 17.5017C86.0416 17.5 86.1232 17.5286 86.1875 17.5822C86.2518 17.6358 86.2945 17.7109 86.3079 17.7936V17.8814C86.0268 18.8305 85.6345 19.743 85.1391 20.6C84.7389 21.4274 84.3609 22.2654 84.0058 23.1132C83.7451 23.6318 83.596 24.1993 83.568 24.7792C83.5503 24.9639 83.5736 25.1503 83.6363 25.325C83.699 25.4997 83.7995 25.6583 83.9307 25.7896C84.0618 25.9209 84.2204 26.0216 84.395 26.0845C84.5696 26.1474 84.756 26.1709 84.9408 26.1533C85.6817 26.0282 86.3876 25.7471 87.0118 25.3288C87.6361 24.9104 88.1644 24.3643 88.5618 23.7266C88.3898 24.2253 88.3012 24.7489 88.2997 25.2764C88.2665 25.5569 88.2958 25.8413 88.3855 26.1091C88.4751 26.3769 88.623 26.6216 88.8184 26.8255C89.0138 27.0295 89.2519 27.1876 89.5157 27.2887C89.7794 27.3897 90.0623 27.4311 90.3439 27.4099C91.1415 27.4005 91.9168 27.1453 92.5639 26.6789C93.4655 25.9731 94.2451 25.1241 94.8716 24.1657L94.4338 23.7563C93.909 24.5483 93.2692 25.2578 92.5355 25.8615C92.185 26.1637 91.7428 26.3389 91.2803 26.3587C90.7548 26.3587 90.4304 26.0952 90.4304 25.4521C90.5385 24.5079 90.8053 23.5888 91.2194 22.7335C91.2194 22.7335 91.8909 21.2134 92.5341 19.7812C93.0597 18.5529 93.5853 17.3842 93.6674 17.1504H95.2739L95.5955 16.4194H94.0188L95.5388 12.9727Z" fill="#C4C4C4"></path><path fill-rule="evenodd" clip-rule="evenodd" d="M106.309 16.4334L108.537 11.2441H105.896L103.641 16.4334H98.0536L97.1045 18.5981H102.713L100.487 23.7278H103.128L105.383 18.5981H110.992L111.911 16.4334H106.309Z" fill="#C4C4C4"></path></g><defs><clipPath id="paramount-default-l_0"><rect width="111.917" height="34" fill="white"></rect></clipPath></defs></svg>
<svg viewBox="0 0 112 34" fill="none" id="paramount-hover-l"><g clip-path="url(#paramount-hover-l_0)"><path fill-rule="evenodd" clip-rule="evenodd" d="M29.6668 11.4511C29.6668 7.05941 25.0216 4.9585 19.5008 4.9585C13.6004 4.9585 8.19581 7.56091 6.20965 11.6253C5.65147 12.7109 5.36009 13.9138 5.35965 15.1344C5.34345 16.1815 5.63935 17.2098 6.20965 18.0882C6.74251 18.7925 7.44562 19.3498 8.25296 19.7079C9.0603 20.066 9.94539 20.213 10.8251 20.1352C13.5423 20.1352 15.7325 18.6435 15.7325 16.0127C15.7344 15.9087 15.7138 15.8054 15.6722 15.71C15.6305 15.6146 15.5688 15.5293 15.4913 15.46C15.4137 15.3906 15.322 15.3388 15.2226 15.308C15.1232 15.2772 15.0183 15.2683 14.9151 15.2817C14.2138 15.2817 14.0396 15.779 14.0651 16.0127C14.1279 16.48 14.0892 16.9553 13.9515 17.4062C13.8139 17.8571 13.5805 18.273 13.2674 18.6255C12.9544 18.978 12.5689 19.2588 12.1374 19.4487C11.7059 19.6385 11.2385 19.7331 10.7671 19.7258C8.34315 19.7258 7.32031 17.649 7.32031 15.4277C7.32031 10.8943 10.7387 7.91225 14.2733 6.59616C15.9353 5.97455 17.6982 5.66712 19.4725 5.6895C23.5043 5.6895 26.7754 7.23933 26.7754 11.3562C26.7242 13.0587 26.0444 14.6819 24.8673 15.913C23.6901 17.144 22.0989 17.8957 20.4004 18.023L20.5421 17.5555C21.1386 14.9529 22.1549 12.4648 23.5511 10.1888C23.6593 10.0007 23.7865 9.82407 23.9307 9.66183L23.7267 9.42808C23.4163 9.60592 23.1228 9.81172 22.8498 10.0429C16.1915 15.2194 15.9846 29.8408 7.13331 29.8408C6.83038 29.8516 6.52713 29.8322 6.22806 29.7827C5.42157 29.715 4.67358 29.3344 4.14409 28.7223C3.6146 28.1102 3.34563 27.3153 3.39473 26.5074C3.39473 26.1858 3.51231 25.7183 3.51231 25.4548C3.51822 25.3353 3.50002 25.2158 3.45879 25.1034C3.41757 24.991 3.35416 24.8881 3.27235 24.8007C3.19054 24.7134 3.09199 24.6434 2.98256 24.5949C2.87314 24.5464 2.75507 24.5204 2.6354 24.5184H2.55748C1.7684 24.5184 1.44681 25.1616 1.42415 26.0385C1.36606 28.6409 3.26581 30.1327 6.21531 30.4302C6.5369 30.4302 6.85848 30.4599 7.20698 30.4599C14.1302 30.4599 18.3661 25.2253 20.178 18.8801C21.0896 18.7585 21.9898 18.5628 22.8696 18.295C26.0826 17.4181 29.6696 15.2534 29.6696 11.4525" fill="white"></path><path fill-rule="evenodd" clip-rule="evenodd" d="M68.4678 17.9622C68.0803 20.262 67.1929 22.4488 65.8682 24.3683C65.3426 25.1574 64.8765 25.36 64.4671 25.36C63.8834 25.36 63.7375 24.8925 63.8239 24.2267C64.2306 22.0977 65.0758 20.0767 66.3059 18.2922C66.9491 17.4153 67.3571 17.064 67.8544 17.064C68.3219 17.064 68.4678 17.4734 68.4678 17.9707M41.5412 24.6942C41.1913 24.6942 40.9278 24.5766 40.9278 24.1091C41.2317 22.2675 42.0062 20.5357 43.176 19.0813C43.5226 18.52 43.9916 18.0444 44.548 17.6902C45.1045 17.3359 45.7338 17.1122 46.389 17.0357L44.842 20.4852C43.6733 23.1457 42.4762 24.6942 41.5412 24.6942ZM26.3545 24.6942C26.0046 24.6942 25.7709 24.5766 25.7709 24.1091C26.101 22.2755 26.8726 20.5499 28.0191 19.0813C28.3656 18.52 28.8347 18.0444 29.3911 17.6902C29.9475 17.3359 30.5769 17.1122 31.2321 17.0357L29.7134 20.4852C28.5447 23.0862 27.2895 24.6942 26.3545 24.6942ZM95.5388 12.9727H93.0852L92.5596 14.259L91.5963 16.4222H90.4629L90.113 17.1532H91.3101L89.8793 20.2812C88.8564 22.5026 87.2797 24.6729 86.3744 24.6729C86.1704 24.6729 86.0528 24.5851 86.0528 24.3811C86.086 24.0565 86.1752 23.7402 86.3164 23.4461C86.6082 22.7732 87.0757 21.8084 87.4256 21.0788C88.0394 20.0144 88.483 18.8605 88.7403 17.659C88.7506 17.4633 88.7188 17.2676 88.6468 17.0853C88.5749 16.903 88.4645 16.7383 88.3233 16.6024C88.182 16.4666 88.0132 16.3627 87.8282 16.2979C87.6433 16.233 87.4465 16.2088 87.2514 16.2267C86.6528 16.2775 86.0712 16.4517 85.5433 16.7384C85.0154 17.0252 84.5527 17.4182 84.1843 17.8927L84.7977 16.4307H82.4857L80.6171 20.6694C79.8861 22.1725 78.3674 24.6517 77.4041 24.6517C77.2001 24.6517 77.1123 24.5341 77.1123 24.3301C77.1321 24.1486 77.1799 23.9713 77.2539 23.8045C77.3418 23.6288 78.451 20.9981 78.451 20.9981L80.4655 16.35H78.0119L76.0285 20.8833C75.4449 22.2858 73.9035 24.6545 72.9034 24.6545C72.8608 24.6609 72.8173 24.6582 72.7759 24.6467C72.7344 24.6351 72.6959 24.6148 72.6628 24.5872C72.6297 24.5597 72.6029 24.5254 72.584 24.4867C72.5652 24.448 72.5548 24.4057 72.5534 24.3627V24.3046C72.6015 23.9478 72.7103 23.6018 72.875 23.2817L73.8978 21.0023L76.0228 16.3542H73.5692L73.1017 17.4068C72.9495 17.82 72.6864 18.1832 72.3413 18.4567C71.9961 18.7301 71.5823 18.9031 71.1453 18.9567C70.6778 18.9567 70.444 18.781 70.3576 18.6053C70.356 18.2736 70.2861 17.9457 70.1523 17.6421C70.0184 17.3386 69.8235 17.0659 69.5796 16.841C69.3357 16.6161 69.0481 16.4438 68.7347 16.335C68.4213 16.2261 68.0888 16.183 67.758 16.2083C66.8557 16.2329 65.9752 16.4909 65.2023 16.9572C64.4294 17.4235 63.7905 18.0821 63.3479 18.8688C62.7031 19.8618 62.2108 20.9458 61.8873 22.0847C61.0118 23.5169 60.1052 24.6347 59.3756 24.6347C59.3319 24.6411 59.2873 24.6372 59.2453 24.6233C59.2034 24.6094 59.1652 24.5859 59.134 24.5547C59.1027 24.5234 59.0792 24.4853 59.0653 24.4434C59.0515 24.4014 59.0476 24.3568 59.054 24.3131C59.1126 23.9687 59.221 23.6347 59.3756 23.3214L60.9821 19.9016C61.3817 19.146 61.639 18.3234 61.7414 17.4748C61.7449 17.3014 61.7118 17.1292 61.6443 16.9694C61.5769 16.8096 61.4766 16.6658 61.3499 16.5473C61.2233 16.4288 61.0731 16.3383 60.9092 16.2816C60.7453 16.2249 60.5712 16.2033 60.3984 16.2182C59.7401 16.2651 59.0979 16.4446 58.5107 16.746C57.9235 17.0474 57.4033 17.4644 56.9814 17.9721C57.0294 17.8012 57.0491 17.6237 57.0395 17.4465C57.0626 17.2774 57.0458 17.1052 56.9905 16.9438C56.9352 16.7823 56.8428 16.6361 56.7208 16.5167C56.5989 16.3973 56.4506 16.3082 56.288 16.2563C56.1254 16.2045 55.9529 16.1915 55.7844 16.2182C55.1685 16.2708 54.571 16.4545 54.032 16.757C53.493 17.0595 53.0249 17.4738 52.6592 17.9721L53.3009 16.3939H51.081L49.1827 20.6609C48.2774 22.6442 46.8466 24.6361 46.0292 24.6361C45.8535 24.6361 45.7374 24.5482 45.7374 24.3145C45.8613 23.7183 46.0573 23.1393 46.321 22.5904L48.8328 16.9237C49.0084 16.4846 47.8099 16.2154 46.2913 16.2154C44.6794 16.2952 43.1435 16.9247 41.9393 17.999C41.4559 18.4889 40.8512 18.8418 40.1869 19.0218C40.0452 19.0218 39.9829 18.934 39.9829 18.8462C39.9829 18.4948 40.8003 17.5315 40.8003 16.7707C40.8003 16.4194 40.6246 16.2154 40.1571 16.2154C39.0646 16.4214 38.0926 17.0384 37.4414 17.9395L38.0845 16.3897H35.8943L34.0357 20.6524C33.1304 22.6357 31.6415 24.7452 30.8524 24.7452C30.6484 24.7452 30.5309 24.6276 30.5309 24.3938C30.6584 23.7625 30.875 23.1524 31.174 22.5819L33.656 16.9152C33.8317 16.4761 32.6332 16.2069 31.1159 16.2069C30.0145 16.2766 28.9425 16.5909 27.9777 17.1268C27.0129 17.6627 26.1797 18.4069 25.5385 19.3052C24.3335 20.6974 23.5709 22.4173 23.3484 24.2451C23.3156 24.4946 23.3391 24.7483 23.4171 24.9876C23.4952 25.2268 23.6258 25.4456 23.7994 25.6278C23.9731 25.81 24.1853 25.951 24.4205 26.0404C24.6558 26.1299 24.908 26.1656 25.1589 26.1448C25.7827 26.0752 26.3836 25.8688 26.9186 25.5405C27.4537 25.2121 27.9097 24.7698 28.2543 24.2451C28.2109 24.408 28.1815 24.5744 28.1664 24.7423C28.1664 25.5612 28.488 26.1448 29.4811 26.1448C30.0783 26.0513 30.6494 25.8343 31.1579 25.5077C31.6665 25.1811 32.1014 24.752 32.4349 24.2479L31.7053 25.972H34.0711L36.4015 20.685C37.1609 18.9609 38.0364 18.084 38.2701 18.084C38.3579 18.084 38.4118 18.1137 38.4118 18.1718C38.4118 18.3475 38.0321 18.8447 38.0321 19.2825C38.0321 19.7202 38.2659 20.0716 38.9374 20.0716C39.5027 20.0287 40.0467 19.8371 40.5141 19.5162C39.3834 20.8575 38.6816 22.5074 38.4996 24.2522C38.4618 24.5026 38.4817 24.7584 38.558 24.9999C38.6342 25.2414 38.7647 25.4623 38.9394 25.6456C39.1141 25.829 39.3285 25.9699 39.5661 26.0577C39.8036 26.1454 40.0581 26.1777 40.3101 26.1519C40.9437 26.044 41.5482 25.8067 42.0859 25.4547C42.6236 25.1028 43.0829 24.6437 43.4353 24.1062C43.4015 24.2996 43.3821 24.4951 43.3772 24.6913C43.3601 24.88 43.3832 25.0702 43.4449 25.2493C43.5066 25.4284 43.6056 25.5924 43.7353 25.7306C43.865 25.8687 44.0224 25.9778 44.1973 26.0506C44.3722 26.1235 44.5605 26.1585 44.7499 26.1533C45.7728 26.1533 46.5604 25.5102 47.5833 24.2833L46.8239 25.9833H49.2776L51.4975 20.9258C52.4608 18.7342 53.8053 17.5641 54.447 17.5641C54.5887 17.5343 54.7389 17.6817 54.7686 17.8276V17.8857C54.7318 18.137 54.6632 18.3826 54.5646 18.6167L51.3516 26.0117H53.8634L56.1116 20.8677C57.1033 18.6464 58.1856 17.5641 58.9733 17.5641C59.2353 17.5641 59.3232 17.6817 59.3232 17.9437C59.3039 18.2266 59.2349 18.5038 59.1192 18.7626L56.929 23.4376C56.7182 23.8781 56.5896 24.3534 56.5494 24.8401C56.5494 25.5711 56.929 26.1845 58.0383 26.1845C59.4394 26.1845 60.5203 25.1036 61.7471 23.524V23.8456C61.7463 24.1862 61.8178 24.5231 61.9569 24.8341C62.096 25.1451 62.2994 25.423 62.5538 25.6495C62.8082 25.876 63.1077 26.046 63.4326 26.1483C63.7576 26.2505 64.1005 26.2826 64.4388 26.2426C66.687 26.2426 68.4692 24.7225 69.5784 22.2674C69.9825 21.3978 70.2487 20.4706 70.3675 19.5191C70.6118 19.6386 70.8846 19.6876 71.1552 19.6607C71.5239 19.678 71.8894 19.5864 72.2064 19.3972L71.8267 20.2472C71.3889 21.1822 70.8917 22.2051 70.512 23.0806C70.2644 23.5941 70.1159 24.1497 70.0743 24.7182C70.0544 24.9201 70.079 25.1238 70.1464 25.3152C70.2137 25.5065 70.3222 25.6807 70.4641 25.8256C70.606 25.9705 70.778 26.0826 70.9679 26.1539C71.1578 26.2252 71.361 26.254 71.5632 26.2383C72.2425 26.1105 72.8884 25.8448 73.461 25.4577C74.0336 25.0705 74.5207 24.57 74.8924 23.9872C74.8327 24.2561 74.8033 24.5307 74.8045 24.8061C74.8045 25.5371 75.0383 26.2383 76.0314 26.2383C76.6389 26.1563 77.2208 25.9407 77.7352 25.6071C78.2496 25.2735 78.6837 24.8301 79.0064 24.3088L78.2768 26.0088H80.7304L82.6869 21.5364C83.7961 19.0218 84.9068 17.5017 85.9579 17.5017C86.0416 17.5 86.1232 17.5286 86.1875 17.5822C86.2518 17.6358 86.2945 17.7109 86.3079 17.7936V17.8814C86.0268 18.8305 85.6345 19.743 85.1391 20.6C84.7389 21.4274 84.3609 22.2654 84.0058 23.1132C83.7451 23.6318 83.596 24.1993 83.568 24.7792C83.5503 24.9639 83.5736 25.1503 83.6363 25.325C83.699 25.4997 83.7995 25.6583 83.9307 25.7896C84.0618 25.9209 84.2204 26.0216 84.395 26.0845C84.5696 26.1474 84.756 26.1709 84.9408 26.1533C85.6817 26.0282 86.3876 25.7471 87.0118 25.3288C87.6361 24.9104 88.1644 24.3643 88.5618 23.7266C88.3898 24.2253 88.3012 24.7489 88.2997 25.2764C88.2665 25.5569 88.2958 25.8413 88.3855 26.1091C88.4751 26.3769 88.623 26.6216 88.8184 26.8255C89.0138 27.0295 89.2519 27.1876 89.5157 27.2887C89.7794 27.3897 90.0623 27.4311 90.3439 27.4099C91.1415 27.4005 91.9168 27.1453 92.5639 26.6789C93.4655 25.9731 94.2451 25.1241 94.8716 24.1657L94.4338 23.7563C93.909 24.5483 93.2692 25.2578 92.5355 25.8615C92.185 26.1637 91.7428 26.3389 91.2803 26.3587C90.7548 26.3587 90.4304 26.0952 90.4304 25.4521C90.5385 24.5079 90.8053 23.5888 91.2194 22.7335C91.2194 22.7335 91.8909 21.2134 92.5341 19.7812C93.0597 18.5529 93.5853 17.3842 93.6674 17.1504H95.2739L95.5955 16.4194H94.0188L95.5388 12.9727Z" fill="white"></path><path fill-rule="evenodd" clip-rule="evenodd" d="M106.309 16.4334L108.537 11.2441H105.896L103.641 16.4334H98.0536L97.1045 18.5981H102.713L100.487 23.7278H103.128L105.383 18.5981H110.992L111.911 16.4334H106.309Z" fill="white"></path></g><defs><clipPath id="paramount-hover-l_0"><rect width="111.917" height="34" fill="white"></rect></clipPath></defs></svg>
<svg viewBox="0 0 40 40" fill="none" id="profile-img-l"><g clip-path="url(#profile-img-l_0)"><path d="M37.4194 0H2.58065C1.15539 0 0 1.15539 0 2.58065V37.4194C0 38.8446 1.15539 40 2.58065 40H37.4194C38.8446 40 40 38.8446 40 37.4194V2.58065C40 1.15539 38.8446 0 37.4194 0Z" fill="black"></path><path d="M3.22559 14.1937V6.4518C3.22559 6.09549 3.51443 5.80664 3.87075 5.80664H20.6449C21.0013 5.80664 21.2901 6.09549 21.2901 6.4518V11.2905L24.0116 6.14994C24.1234 5.93874 24.3428 5.80664 24.5818 5.80664H37.154C37.5987 5.80664 37.9101 6.24594 37.7627 6.66548L27.5706 35.6977C27.4798 35.9563 27.2358 36.1292 26.9618 36.1292H9.6772C9.32088 36.1292 9.03204 35.8404 9.03204 35.4841V15.4841C9.03204 15.1277 8.7432 14.8389 8.38688 14.8389H3.87075C3.51444 14.8389 3.22559 14.5501 3.22559 14.1937Z" fill="#FF002F"></path><path fill-rule="evenodd" clip-rule="evenodd" d="M20.9676 21.8954C20.5274 22.6888 19.6812 23.2257 18.7096 23.2257C17.2843 23.2257 16.1289 22.0703 16.1289 20.6451C16.1289 19.2199 17.2843 18.0645 18.7096 18.0645C19.6812 18.0645 20.5274 18.6014 20.9676 19.3948C21.4079 18.6014 22.2541 18.0645 23.2257 18.0645C24.6509 18.0645 25.8063 19.2199 25.8063 20.6451C25.8063 22.0703 24.6509 23.2257 23.2257 23.2257C22.2541 23.2257 21.4079 22.6888 20.9676 21.8954Z" fill="white"></path><path fill-rule="evenodd" clip-rule="evenodd" d="M18.7093 21.9356C19.4219 21.9356 19.9996 21.3579 19.9996 20.6453C19.9996 19.9327 19.4219 19.355 18.7093 19.355C17.9966 19.355 17.4189 19.9327 17.4189 20.6453C17.4189 21.3579 17.9966 21.9356 18.7093 21.9356ZM23.2254 21.9356C23.938 21.9356 24.5157 21.3579 24.5157 20.6453C24.5157 19.9327 23.938 19.355 23.2254 19.355C22.5128 19.355 21.9351 19.9327 21.9351 20.6453C21.9351 21.3579 22.5128 21.9356 23.2254 21.9356Z" fill="#030303"></path><path fill-rule="evenodd" clip-rule="evenodd" d="M19.3548 26.672C20.0674 26.672 20.6451 26.0944 20.6451 25.3817C20.6451 25.3065 20.6386 25.2328 20.6263 25.1611L18.3154 25.3055C18.2232 25.3113 18.139 25.335 18.0645 25.3724C18.0645 25.3755 18.0645 25.3786 18.0645 25.3817C18.0645 26.0944 18.6421 26.672 19.3548 26.672Z" fill="white"></path><path d="M17.0713 25.4599L24.8151 24.8643" stroke="black" stroke-linecap="round"></path><path fill-rule="evenodd" clip-rule="evenodd" d="M27.7418 23.5482C27.7418 23.7263 27.5974 23.8707 27.4193 23.8707C27.2411 23.8707 27.0967 23.7263 27.0967 23.5482C27.0967 23.37 27.2411 23.2256 27.4193 23.2256C27.5974 23.2256 27.7418 23.37 27.7418 23.5482ZM29.6773 23.5482C29.6773 23.7263 29.5329 23.8707 29.3547 23.8707C29.1766 23.8707 29.0322 23.7263 29.0322 23.5482C29.0322 23.37 29.1766 23.2256 29.3547 23.2256C29.5329 23.2256 29.6773 23.37 29.6773 23.5482ZM28.0644 25.1611C28.2426 25.1611 28.387 25.0166 28.387 24.8385C28.387 24.6604 28.2426 24.5159 28.0644 24.5159C27.8863 24.5159 27.7418 24.6604 27.7418 24.8385C27.7418 25.0166 27.8863 25.1611 28.0644 25.1611Z" fill="#FF305B"></path><path fill-rule="evenodd" clip-rule="evenodd" d="M11.6133 23.5482C11.6133 23.7263 11.7577 23.8707 11.9359 23.8707C12.114 23.8707 12.2584 23.7263 12.2584 23.5482C12.2584 23.37 12.114 23.2256 11.9359 23.2256C11.7577 23.2256 11.6133 23.37 11.6133 23.5482ZM13.5488 23.5482C13.5488 23.7263 13.6932 23.8707 13.8713 23.8707C14.0495 23.8707 14.1939 23.7263 14.1939 23.5482C14.1939 23.37 14.0495 23.2256 13.8713 23.2256C13.6932 23.2256 13.5488 23.37 13.5488 23.5482ZM13.2262 25.1611C13.0481 25.1611 12.9036 25.0166 12.9036 24.8385C12.9036 24.6604 13.0481 24.5159 13.2262 24.5159C13.4043 24.5159 13.5488 24.6604 13.5488 24.8385C13.5488 25.0166 13.4043 25.1611 13.2262 25.1611Z" fill="#FF305B"></path></g><defs><clipPath id="profile-img-l_0"><rect width="40" height="40" fill="white"></rect></clipPath></defs></svg>
<svg viewBox="0 0 60 60" fill="none" id="profile-lock-l"><g clip-path="url(#profile-lock-l_0)"><path d="M45.9953 47.8644H13.3301V23.3652H45.9953V47.8632V47.8644ZM29.7125 31.7316C29.076 31.7316 28.4655 31.9845 28.0154 32.4346C27.5653 32.8847 27.3125 33.4951 27.3125 34.1316V37.8852C27.3125 38.5218 27.5653 39.1322 28.0154 39.5823C28.4655 40.0324 29.076 40.2852 29.7125 40.2852H29.7977C30.4342 40.2852 31.0446 40.0324 31.4947 39.5823C31.9448 39.1322 32.1977 38.5218 32.1977 37.8852V34.1328C32.1977 33.4963 31.9448 32.8859 31.4947 32.4358C31.0446 31.9857 30.4342 31.7328 29.7977 31.7328L29.7125 31.7316Z" fill="white"></path><path d="M29.7538 10.9692C32.3451 10.9692 34.8302 11.9986 36.6625 13.8309C38.4948 15.6632 39.5242 18.1484 39.5242 20.7396V26.8464C39.5242 32.2464 20.2294 27.7644 19.9834 26.8464V20.7396C19.9834 18.1484 21.0128 15.6632 22.8451 13.8309C24.6774 11.9986 27.1625 10.9692 29.7538 10.9692V10.9692Z" stroke="white" stroke-width="4"></path></g><defs><clipPath id="profile-lock-l_0"><rect width="60" height="60" fill="white"></rect></clipPath></defs></svg>
<svg viewBox="0 0 60 60" fill="none" id="profile-pencil-l"><g clip-path="url(#profile-pencil-l_0)"><path d="M10.27 41.8861L9.23438 51.0169H18.3364L45.1804 24.1729L36.0784 15.0709L10.27 41.8861ZM49.3792 19.9729C49.977 19.3754 50.4513 18.6659 50.7748 17.885C51.0984 17.1041 51.265 16.2672 51.265 15.4219C51.265 14.5766 51.0984 13.7397 50.7748 12.9588C50.4513 12.1779 49.977 11.4684 49.3792 10.8709C48.7816 10.273 48.0722 9.79879 47.2913 9.47522C46.5104 9.15165 45.6734 8.98511 44.8282 8.98511C43.9829 8.98511 43.1459 9.15165 42.3651 9.47522C41.5842 9.79879 40.8747 10.273 40.2772 10.8709L38.6752 12.4729L47.7772 21.5749L49.3792 19.9729Z" fill="white"></path></g><defs><clipPath id="profile-pencil-l_0"><rect width="60" height="60" fill="white"></rect></clipPath></defs></svg>
<svg viewBox="0 0 40 40" fill="none" id="search-defualt-l"><g clip-path="url(#search-defualt-l_0)"><g opacity="0.997"><path d="M26.6963 27.9629L33.572 34.9486" stroke="#C4C4C4" stroke-width="1.5" stroke-miterlimit="10" stroke-linecap="round"></path><path d="M18.5709 30.3571C25.0799 30.3571 30.3566 25.0804 30.3566 18.5714C30.3566 12.0623 25.0799 6.78564 18.5709 6.78564C12.0618 6.78564 6.78516 12.0623 6.78516 18.5714C6.78516 25.0804 12.0618 30.3571 18.5709 30.3571Z" stroke="#C4C4C4" stroke-width="1.5"></path></g></g><defs><clipPath id="search-defualt-l_0"><rect width="40" height="40" fill="white"></rect></clipPath></defs></svg>
<svg viewBox="0 0 40 40" fill="none" id="search-hover-l"><g clip-path="url(#search-hover-l_0)"><g opacity="0.997"><path d="M26.6963 27.9629L33.572 34.9486" stroke="white" stroke-width="1.5" stroke-miterlimit="10" stroke-linecap="round"></path><path d="M18.5709 30.3571C25.0799 30.3571 30.3566 25.0804 30.3566 18.5714C30.3566 12.0623 25.0799 6.78564 18.5709 6.78564C12.0618 6.78564 6.78516 12.0623 6.78516 18.5714C6.78516 25.0804 12.0618 30.3571 18.5709 30.3571Z" stroke="white" stroke-width="1.5"></path></g></g><defs><clipPath id="search-hover-l_0"><rect width="40" height="40" fill="white"></rect></clipPath></defs></svg>
<svg viewBox="0 0 52 52" fill="none" id="twitter-l"><rect width="52" height="52" rx="26" fill="#2B2B2B"></rect><g clip-path="url(#twitter-l_0)"><path d="M38.7106 19.482C38.7309 19.7663 38.7309 20.0506 38.7309 20.3348C38.7309 29.0048 32.132 38.9947 20.0711 38.9947C16.3553 38.9947 12.9036 37.9185 10 36.0506C10.5279 36.1114 11.0355 36.1318 11.5838 36.1318C14.6497 36.1318 17.4721 35.0963 19.7259 33.3298C16.8426 33.2688 14.4264 31.3805 13.5939 28.7815C14 28.8424 14.4061 28.883 14.8325 28.883C15.4213 28.883 16.0102 28.8018 16.5584 28.6597C13.5533 28.0505 11.2994 25.4109 11.2994 22.2231V22.1419C12.1725 22.6293 13.1878 22.9338 14.2639 22.9744C12.4974 21.7967 11.3401 19.7866 11.3401 17.5124C11.3401 16.2942 11.6649 15.1774 12.2334 14.2028C15.4619 18.1825 20.3147 20.7814 25.7563 21.0658C25.6548 20.5784 25.5938 20.0709 25.5938 19.5633C25.5938 15.949 28.5177 13.0049 32.1522 13.0049C34.0405 13.0049 35.7461 13.7968 36.9441 15.0759C38.4263 14.7917 39.8476 14.2434 41.1065 13.4922C40.6191 15.0151 39.5836 16.2943 38.2233 17.1064C39.5431 16.9643 40.8223 16.5988 41.9999 16.0912C41.1066 17.3906 39.9898 18.5479 38.7106 19.482Z" fill="#6B6B6B"></path></g><defs><clipPath id="twitter-l_0"><rect width="32" height="32" fill="white" transform="translate(10 10)"></rect></clipPath></defs></svg>
<svg viewBox="0 0 52 52" fill="none" id="youtube-l"><rect width="52" height="52" rx="26" fill="#2B2B2B"></rect><path d="M40.9906 18.2705C40.6307 16.8847 39.5705 15.7934 38.2243 15.423C35.7843 14.75 25.9999 14.75 25.9999 14.75C25.9999 14.75 16.2157 14.75 13.7756 15.423C12.4294 15.7934 11.3691 16.8847 11.0093 18.2705C10.3555 20.7822 10.3555 26.0227 10.3555 26.0227C10.3555 26.0227 10.3555 31.2632 11.0093 33.775C11.3691 35.1607 12.4294 36.2066 13.7756 36.577C16.2157 37.25 25.9999 37.25 25.9999 37.25C25.9999 37.25 35.7842 37.25 38.2243 36.577C39.5705 36.2066 40.6307 35.1607 40.9906 33.775C41.6444 31.2632 41.6444 26.0227 41.6444 26.0227C41.6444 26.0227 41.6444 20.7822 40.9906 18.2705ZM22.7999 30.7807V21.2647L30.9777 26.0229L22.7999 30.7807Z" fill="#6B6B6B"></path></svg>
</svg>