<svg width="279" height="110" viewBox="0 0 279 110" fill="none" xmlns="http://www.w3.org/2000/svg">
<g clip-path="url(#clip0_96_7116)">
<path d="M78.0798 106.962L92.0162 63.8724C92.1028 63.604 92.2829 63.3753 92.524 63.2275C92.7651 63.0797 93.0513 63.0225 93.331 63.0662C93.6107 63.1099 93.8656 63.2517 94.0495 63.466C94.2335 63.6803 94.3344 63.9529 94.3342 64.2348L94.3342 106.962L116.459 106.962L116.459 42.0156L75.8386 42.0156L53.7821 106.96L78.0798 106.962Z" fill="white"/>
<path d="M127.298 42.0164H150.569V106.961H127.298V42.0164ZM0 61.3989H16.7308V106.964H39.2396V61.3989H55.9689V42.0164H0V61.3989ZM196.445 42.0193V69.1544C196.446 69.4215 196.356 69.6809 196.189 69.8904C196.023 70.0998 195.79 70.247 195.529 70.3079C195.267 70.3688 194.993 70.3399 194.75 70.2258C194.508 70.1117 194.311 69.9191 194.193 69.6796L180.433 42.0193H158.443V106.965H179.827V79.9787C179.827 79.7122 179.917 79.4535 180.084 79.2446C180.25 79.0357 180.482 78.889 180.743 78.8281C181.004 78.7673 181.278 78.796 181.52 78.9095C181.762 79.0231 181.959 79.2148 182.078 79.4536L195.774 106.962H217.767V42.0164L196.445 42.0193ZM244.992 81.0404V66.8528C244.992 63.2631 246.427 60.6246 249.887 59.7201C253.596 58.7575 257.019 61.1059 258.182 64.9475L278.649 54.0397C270.583 39.402 255.493 39.6016 249.453 40.1281C242.798 40.5327 236.447 43.0476 231.332 47.3047C225.739 52.0665 223.092 59.8347 223.092 68.0291V80.8196C223.092 93.0099 227.927 101.14 236.266 105.894C250.652 114.087 270.84 108.5 279.004 102.315V71.1432H257.872V90.6007C254.876 91.7585 244.998 93.0863 244.998 81.0375" fill="white"/>
<path d="M181.375 1.1311H197.935V3.65919H181.375V1.1311Z" fill="white"/>
<path d="M194.636 5.99173L195.251 3.55849V3.53442H192.311L191.691 5.99173H187.341V3.53442H184.461V5.99173H181.172V8.44763H198.149V5.99173H194.636Z" fill="white"/>
<path d="M184.04 18.6224H197.935V12.8613H181.375V15.3087H195.274V16.175H181.378V21.9602H198.158V19.5184H184.04V18.6224Z" fill="white"/>
<path d="M180.345 9.44556H198.967V11.9751H180.345V9.44556Z" fill="white"/>
<path d="M226.779 1.1311H243.398V3.80074H226.779V1.1311Z" fill="white"/>
<path d="M236.45 11.0481V9.60424H243.617V6.98415H240.146L240.803 3.40576H237.889L237.21 6.98415H232.751V3.40576H229.872V6.98415H226.582V9.60424H233.455V11.0481H225.537V13.6922H244.492V11.0481H236.45Z" fill="white"/>
<path d="M226.779 21.9658H243.398V14.7737H226.779V21.9658ZM229.561 17.2777H240.618V19.4604H229.561V17.2777Z" fill="white"/>
<path d="M108.927 15.3044H105.993V21.9644H122.774V19.3783H108.92L108.927 15.3044Z" fill="white"/>
<path d="M119.612 10.5412H122.545V1.13232H105.995V3.85858H119.612V5.46234H105.995V8.14047H119.612V10.5412Z" fill="white"/>
<path d="M114.779 11.6879V9.03101H111.845V11.6879H104.968V14.274H123.475V11.6879H114.779Z" fill="white"/>
<path d="M136.262 13.4274V10.6941L130.649 11.0904V8.72937H135.504V6.02718H130.649V3.86004H135.933V1.13379H127.715V14.0559L136.247 13.4302L136.262 13.4274Z" fill="white"/>
<path d="M138.511 16.0871H141.42V0.796875H138.509V6.03423H136.4V8.72934H138.509L138.511 16.0871Z" fill="white"/>
<path d="M142.612 0.699219H145.546V16.6604H142.612V0.699219Z" fill="white"/>
<path d="M131.378 19.3783V15.0879H128.444V21.9658H145.632V19.3783H131.378Z" fill="white"/>
<path d="M159.06 6.36829L165.602 15.7403L167.937 13.8804L161.822 5.38735H167.51V2.72337H160.515V-0.00146484H157.414V2.72337H150.588V5.39159H156.276L150.205 13.8704L152.51 15.7332L159.06 6.36829Z" fill="white"/>
<path d="M149.694 19.2961H168.435V21.9644H149.694V19.2961Z" fill="white"/>
<path d="M216.939 8.80589H218.491V15.1756H221.369V0.695068H218.491V6.13767H216.936V0.791323H214.101V14.2669H216.936L216.939 8.80589Z" fill="white"/>
<path d="M212.648 13.4488V10.8867L206.64 11.2718V8.51719H212.415V1.1311H203.759V3.67901H209.535V5.98769H203.759V14.182L212.648 13.4488Z" fill="white"/>
<path d="M213.02 14.5386H213.009L203.879 20.2416L205.516 22.5362L213.009 17.7985L220.473 22.5418L222.127 20.236L213.02 14.5386Z" fill="white"/>
<path d="M88.2485 21.9786L84.9507 12.4862H84.7075V21.9786H81.4111V1.16504H84.7303L84.7075 10.3927H84.9507L88.1148 1.16504H91.6999L87.9385 11.2703L92.0981 21.9743L88.2485 21.9786Z" fill="white"/>
<path d="M93.4121 10.019H100.572V12.6179H93.4121V10.019Z" fill="white"/>
<path d="M57.7803 18.2559H61.0994V21.9786H57.7803V18.2559Z" fill="white"/>
<path d="M39.9352 7.00115V1.16504H43.0553V21.9729H39.8243L36.5535 9.3523H36.3544L36.5094 14.6604V21.9729H33.4121V1.16504H36.9958L39.9167 12.6391H40.1371L39.9352 7.00115Z" fill="white"/>
<path d="M67.745 1.09839V21.9784H64.4742V6.01018H62.2842V4.02848C63.1175 4.07209 63.935 3.79053 64.563 3.24365C65.191 2.69677 65.5801 1.92767 65.6474 1.0998L67.745 1.09839Z" fill="white"/>
<path d="M55.4525 6.13205V17.013C55.4525 20.2687 53.682 22.1881 50.5406 22.1881C47.3765 22.1881 45.6729 20.2715 45.6729 17.013V6.13205C45.6729 2.85092 47.3993 0.955566 50.5406 0.955566C53.7048 0.955566 55.4525 2.84951 55.4525 6.13205ZM52.0964 5.59699C52.0964 4.51697 51.4991 3.8347 50.5918 3.8347C50.3705 3.83718 50.1522 3.88639 49.9514 3.97909C49.7505 4.07179 49.5718 4.20585 49.4269 4.37243C49.282 4.539 49.1742 4.73429 49.1108 4.94539C49.0474 5.15648 49.0296 5.37858 49.0588 5.59699V17.5339C49.0588 18.6139 49.6789 19.2962 50.5634 19.2962C50.7843 19.2929 51.0019 19.2431 51.2021 19.1501C51.4022 19.0571 51.5803 18.9229 51.7246 18.7564C51.8688 18.5899 51.9761 18.3949 52.0392 18.1842C52.1023 17.9735 52.1199 17.7519 52.0907 17.5339L52.0964 5.59699Z" fill="white"/>
</g>
<defs>
<clipPath id="clip0_96_7116">
<rect width="279" height="110" fill="white"/>
</clipPath>
</defs>
</svg>
