<svg xmlns="http://www.w3.org/2000/svg" width="34" height="38" viewBox="0 0 34 38" fill="none">
<g clip-path="url(#clip0_93_7377)">
<path d="M17.0065 10.7073C12.4202 10.7073 8.72085 14.4066 8.72085 18.993C8.72085 23.5793 12.4202 27.2786 17.0065 27.2786C21.5928 27.2786 25.2922 23.5793 25.2922 18.993C25.2922 14.4066 21.5928 10.7073 17.0065 10.7073ZM17.0065 24.3797C14.0427 24.3797 11.6198 21.964 11.6198 18.993C11.6198 16.0219 14.0355 13.6062 17.0065 13.6062C19.9775 13.6062 22.3933 16.0219 22.3933 18.993C22.3933 21.964 19.9703 24.3797 17.0065 24.3797ZM27.5637 10.3684C27.5637 11.4428 26.6984 12.301 25.6311 12.301C24.5566 12.301 23.6985 11.4356 23.6985 10.3684C23.6985 9.30111 24.5639 8.43577 25.6311 8.43577C26.6984 8.43577 27.5637 9.30111 27.5637 10.3684ZM33.0514 12.3298C32.9288 9.74099 32.3375 7.44783 30.441 5.5585C28.5516 3.66917 26.2585 3.07785 23.6697 2.94805C21.0015 2.79661 13.0043 2.79661 10.3362 2.94805C7.75455 3.07064 5.46139 3.66196 3.56485 5.55129C1.66831 7.44062 1.0842 9.73378 0.954397 12.3226C0.802962 14.9907 0.802962 22.988 0.954397 25.6561C1.07699 28.2449 1.66831 30.5381 3.56485 32.4274C5.46139 34.3167 7.74734 34.9081 10.3362 35.0379C13.0043 35.1893 21.0015 35.1893 23.6697 35.0379C26.2585 34.9153 28.5516 34.324 30.441 32.4274C32.3303 30.5381 32.9216 28.2449 33.0514 25.6561C33.2029 22.988 33.2029 14.998 33.0514 12.3298ZM29.6045 28.5189C29.042 29.9323 27.9531 31.0212 26.5325 31.5909C24.4052 32.4346 19.3574 32.2399 17.0065 32.2399C14.6557 32.2399 9.60062 32.4274 7.48053 31.5909C6.06713 31.0284 4.97824 29.9396 4.40856 28.5189C3.56485 26.3916 3.75955 21.3438 3.75955 18.993C3.75955 16.6421 3.57206 11.5871 4.40856 9.46697C4.97103 8.05358 6.05992 6.96468 7.48053 6.395C9.60783 5.55129 14.6557 5.74599 17.0065 5.74599C19.3574 5.74599 24.4124 5.5585 26.5325 6.395C27.9459 6.95747 29.0348 8.04636 29.6045 9.46697C30.4482 11.5943 30.2535 16.6421 30.2535 18.993C30.2535 21.3438 30.4482 26.3989 29.6045 28.5189Z" fill="#6B6B6B"/>
</g>
<defs>
<clipPath id="clip0_93_7377">
<rect width="32.3062" height="36.9213" fill="white" transform="translate(0.84668 0.539551)"/>
</clipPath>
</defs>
</svg>